<mxfile host="app.diagrams.net" modified="2024-07-26T06:46:44.444Z" agent="Mozilla/5.0 (Macintosh; Intel Mac OS X 10_15_7) AppleWebKit/537.36 (KHTML, like Gecko) Chrome/126.0.0.0 Safari/537.36" version="24.6.4" etag="cHXX1o6wdwK2rUdw0tn3" type="github">
  <diagram name="페이지-1" id="UWchC4fnxkxY9Y-esALd">
    <mxGraphModel>
      <root>
        <mxCell id="0" />
        <mxCell id="1" parent="0" />
      </root>
    </mxGraphModel>
  </diagram>
</mxfile>
